/* XPM */
static char * wxMUN_xpm[] = {
"32 32 669 2",
"  	c None",
". 	c #5A0101",
"+ 	c #5B0101",
"@ 	c #5C0101",
"# 	c #5E0202",
"$ 	c #600202",
"% 	c #610202",
"& 	c #640202",
"* 	c #660303",
"= 	c #670303",
"- 	c #690303",
"; 	c #6B0404",
"> 	c #6C0303",
", 	c #6E0404",
"' 	c #6F0404",
") 	c #700505",
"! 	c #620202",
"~ 	c #650303",
"{ 	c #670202",
"] 	c #6C0404",
"^ 	c #700404",
"/ 	c #710505",
"( 	c #730505",
"_ 	c #740505",
": 	c #750505",
"< 	c #5E0101",
"[ 	c #6A0404",
"} 	c #6D0404",
"| 	c #720505",
"1 	c #770606",
"2 	c #790606",
"3 	c #790404",
"4 	c #780000",
"5 	c #770000",
"6 	c #780101",
"7 	c #7A0606",
"8 	c #630202",
"9 	c #680303",
"0 	c #700202",
"a 	c #770505",
"b 	c #7A0505",
"c 	c #A25151",
"d 	c #B26F6F",
"e 	c #B36F6F",
"f 	c #BA7E7E",
"g 	c #BB7F7F",
"h 	c #B26E6E",
"i 	c #B27171",
"j 	c #902B2B",
"k 	c #790000",
"l 	c #7B0606",
"m 	c #6F0000",
"n 	c #5F0202",
"o 	c #620101",
"p 	c #640303",
"q 	c #6D0101",
"r 	c #832424",
"s 	c #A05858",
"t 	c #780404",
"u 	c #AC6565",
"v 	c #B87777",
"w 	c #901F1F",
"x 	c #820000",
"y 	c #850202",
"z 	c #962525",
"A 	c #972727",
"B 	c #840000",
"C 	c #810000",
"D 	c #A24747",
"E 	c #B87979",
"F 	c #963535",
"G 	c #7C0303",
"H 	c #B37B7B",
"I 	c #852828",
"J 	c #6D0202",
"K 	c #610101",
"L 	c #6A0303",
"M 	c #771515",
"N 	c #A25E5E",
"O 	c #E4D9D9",
"P 	c #810B0B",
"Q 	c #C18B8B",
"R 	c #8E1919",
"S 	c #880606",
"T 	c #8C0909",
"U 	c #B26060",
"V 	c #B76A6A",
"W 	c #C07F7F",
"X 	c #CD9E9E",
"Y 	c #B36464",
"Z 	c #8D0A0A",
"` 	c #850000",
" .	c #A34747",
"..	c #B57373",
"+.	c #7B0000",
"@.	c #790202",
"#.	c #EBE7E7",
"$.	c #9A4F4F",
"%.	c #852D2D",
"&.	c #660202",
"*.	c #8A3939",
"=.	c #AC7171",
"-.	c #F3F7F7",
";.	c #892222",
">.	c #830E0E",
",.	c #D5B8B8",
"'.	c #800000",
").	c #8A0303",
"!.	c #B96C6C",
"~.	c #B96868",
"{.	c #960E0E",
"].	c #930202",
"^.	c #A32727",
"/.	c #A22626",
"(.	c #930101",
"_.	c #940707",
":.	c #EDE9E9",
"<.	c #BE7979",
"[.	c #890101",
"}.	c #8F1717",
"|.	c #CDA5A5",
"1.	c #7A0000",
"2.	c #903131",
"3.	c #EEEDED",
"4.	c #B88686",
"5.	c #802626",
"6.	c #6A0101",
"7.	c #E9E4E4",
"8.	c #A86767",
"9.	c #A35858",
"0.	c #963636",
"a.	c #C08888",
"b.	c #880505",
"c.	c #BA7171",
"d.	c #C38282",
"e.	c #960B0B",
"f.	c #970303",
"g.	c #B04242",
"h.	c #C16E6E",
"i.	c #C88282",
"j.	c #C98282",
"k.	c #C27070",
"l.	c #B34C4C",
"m.	c #B45151",
"n.	c #E9E0E0",
"o.	c #CC9999",
"p.	c #BB7474",
"q.	c #8B0D0D",
"r.	c #B57272",
"s.	c #A65757",
"t.	c #A86161",
"u.	c #9F5656",
"v.	c #D5C0C0",
"w.	c #741111",
"x.	c #650000",
"y.	c #954B4B",
"z.	c #E1D4D4",
"A.	c #AD6E6E",
"B.	c #CDA8A8",
"C.	c #A75555",
"D.	c #921D1D",
"E.	c #8B0101",
"F.	c #C48383",
"G.	c #BD6D6D",
"H.	c #9B0808",
"I.	c #CA8484",
"J.	c #AF3232",
"K.	c #A00101",
"L.	c #AF2828",
"M.	c #AF2929",
"N.	c #A10202",
"O.	c #AC2A2A",
"P.	c #C98383",
"Q.	c #B65151",
"R.	c #F3F8F8",
"S.	c #D2A7A7",
"T.	c #8C0303",
"U.	c #A74B4B",
"V.	c #922727",
"W.	c #D3B4B4",
"X.	c #AB6B6B",
"Y.	c #D5BDBD",
"Z.	c #A56868",
"`.	c #893838",
" +	c #A76868",
".+	c #DDCBCB",
"++	c #C59B9B",
"@+	c #7E0000",
"#+	c #BA7878",
"$+	c #8C0606",
"%+	c #BA6C6C",
"&+	c #9B1111",
"*+	c #A52222",
"=+	c #E4CDCD",
"-+	c #A00000",
";+	c #AE2020",
">+	c #C66969",
",+	c #CE7E7E",
"'+	c #CC7B7B",
")+	c #C76F6F",
"!+	c #AC1A1A",
"~+	c #AB1C1C",
"{+	c #E6D5D5",
"]+	c #9F0F0F",
"^+	c #C57F7F",
"/+	c #B66363",
"(+	c #890000",
"_+	c #8B1C1C",
":+	c #C49898",
"<+	c #DFD0D0",
"[+	c #B78686",
"}+	c #822B2B",
"|+	c #A56969",
"1+	c #AF7474",
"2+	c #CEADAD",
"3+	c #CAA4A4",
"4+	c #9B3B3B",
"5+	c #992929",
"6+	c #900707",
"7+	c #BF7070",
"8+	c #9A0303",
"9+	c #CB8484",
"0+	c #A60A0A",
"a+	c #D08888",
"b+	c #C25151",
"c+	c #AC0101",
"d+	c #BB3232",
"e+	c #B92B2B",
"f+	c #AD0303",
"g+	c #CF7F7F",
"h+	c #D18C8C",
"i+	c #A20000",
"j+	c #D7A8A8",
"k+	c #990101",
"l+	c #8F0404",
"m+	c #AB5252",
"n+	c #8B1616",
"o+	c #DDCACA",
"p+	c #B47A7A",
"q+	c #C19898",
"r+	c #9B5656",
"s+	c #6A0202",
"t+	c #AB7272",
"u+	c #BD9090",
"v+	c #D5BCBC",
"w+	c #AB6060",
"x+	c #B57070",
"y+	c #880000",
"z+	c #B25757",
"A+	c #9F1717",
"B+	c #B23E3E",
"C+	c #B53737",
"D+	c #B22323",
"E+	c #ECE3E3",
"F+	c #F0F0F0",
"G+	c #D17C7C",
"H+	c #D07676",
"I+	c #E0B5B5",
"J+	c #CD7070",
"K+	c #ECE4E4",
"L+	c #E0B8B8",
"M+	c #C15555",
"N+	c #C77171",
"O+	c #9F1919",
"P+	c #B25656",
"Q+	c #B46E6E",
"R+	c #A04A4A",
"S+	c #DCC9C9",
"T+	c #C8A2A2",
"U+	c #A26262",
"V+	c #690101",
"W+	c #700D0D",
"X+	c #A56767",
"Y+	c #D9C4C4",
"Z+	c #D7BEBE",
"`+	c #871111",
" @	c #B77070",
".@	c #8B0000",
"+@	c #BD6E6E",
"@@	c #990202",
"#@	c #C57272",
"$@	c #AB1313",
"%@	c #DCABAB",
"&@	c #CF7777",
"*@	c #F1F5F5",
"=@	c #CF6969",
"-@	c #DFAAAA",
";@	c #F1F6F6",
">@	c #EFEFEF",
",@	c #F0F1F1",
"'@	c #EFEEEE",
")@	c #D69E9E",
"!@	c #CB8585",
"~@	c #BC6B6B",
"{@	c #8C0101",
"]@	c #B76F6F",
"^@	c #963131",
"/@	c #CEABAB",
"(@	c #DFD1D1",
"_@	c #A05C5C",
":@	c #6D0808",
"<@	c #781A1A",
"[@	c #ECE8E8",
"}@	c #9F4B4B",
"|@	c #962E2E",
"1@	c #C08181",
"2@	c #CE9E9E",
"3@	c #D1A2A2",
"4@	c #AD3232",
"5@	c #EEEBEB",
"6@	c #DFB9B9",
"7@	c #D38989",
"8@	c #E0B4B4",
"9@	c #F1F4F4",
"0@	c #D88A8A",
"a@	c #BB0B0B",
"b@	c #BD1515",
"c@	c #F0F2F2",
"d@	c #F0F3F3",
"e@	c #CA7171",
"f@	c #D18F8F",
"g@	c #AF3737",
"h@	c #C98A8A",
"i@	c #A43838",
"j@	c #BF8282",
"k@	c #9B3A3A",
"l@	c #A15151",
"m@	c #DECFCF",
"n@	c #BF9595",
"o@	c #771616",
"p@	c #720D0D",
"q@	c #E9E3E3",
"r@	c #913939",
"s@	c #DBC7C7",
"t@	c #830505",
"u@	c #BA7474",
"v@	c #E8DDDD",
"w@	c #E9DDDD",
"x@	c #E3C4C4",
"y@	c #CC6E6E",
"z@	c #B91717",
"A@	c #DA9494",
"B@	c #D06262",
"C@	c #BD0C0C",
"D@	c #BE1010",
"E@	c #D78181",
"F@	c #DCAEAE",
"G@	c #C87373",
"H@	c #A61919",
"I@	c #C37979",
"J@	c #991A1A",
"K@	c #BB7676",
"L@	c #830404",
"M@	c #EAE5E5",
"N@	c #862121",
"O@	c #F8FFFF",
"P@	c #690000",
"Q@	c #A15656",
"R@	c #E5D9D9",
"S@	c #910505",
"T@	c #DFC4C4",
"U@	c #E5CBCB",
"V@	c #C96161",
"W@	c #B60808",
"X@	c #C23030",
"Y@	c #D98B8B",
"Z@	c #BE0E0E",
"`@	c #CE5555",
" #	c #EBDCDC",
".#	c #B52626",
"+#	c #C66E6E",
"@#	c #9D0101",
"##	c #900303",
"$#	c #B87070",
"%#	c #850808",
"&#	c #E2D3D3",
"*#	c #B07373",
"=#	c #D9C5C5",
"-#	c #812929",
";#	c #9D5757",
">#	c #E0D0D0",
",#	c #BA7F7F",
"'#	c #AB5A5A",
")#	c #B56969",
"!#	c #961313",
"~#	c #B45252",
"{#	c #F0EFEF",
"]#	c #AF0303",
"^#	c #D27C7C",
"/#	c #CF6565",
"(#	c #BD0F0F",
"_#	c #D68080",
":#	c #E4BCBC",
"<#	c #E2B4B4",
"[#	c #EFEDED",
"}#	c #E1BCBC",
"|#	c #BE4545",
"1#	c #B12929",
"2#	c #AB2828",
"3#	c #B04A4A",
"4#	c #8E0000",
"5#	c #B87171",
"6#	c #B67272",
"7#	c #B67878",
"8#	c #DFCFCF",
"9#	c #9B5353",
"0#	c #7D2222",
"a#	c #710E0E",
"b#	c #B58282",
"c#	c #CEAFAF",
"d#	c #A45555",
"e#	c #CEA7A7",
"f#	c #8C0D0D",
"g#	c #950000",
"h#	c #DDBABA",
"i#	c #F3FBFB",
"j#	c #BB3131",
"k#	c #D27373",
"l#	c #BB1010",
"m#	c #CA4F4F",
"n#	c #E7CACA",
"o#	c #E4BEBE",
"p#	c #EAD9D9",
"q#	c #D18484",
"r#	c #D49494",
"s#	c #A30202",
"t#	c #C67A7A",
"u#	c #960202",
"v#	c #A94141",
"w#	c #9A2D2D",
"x#	c #D5B6B6",
"y#	c #9D4747",
"z#	c #B78383",
"A#	c #CEB1B1",
"B#	c #6A0000",
"C#	c #660000",
"D#	c #DBCACA",
"E#	c #9E5252",
"F#	c #AC6868",
"G#	c #DCC5C5",
"H#	c #BF7B7B",
"I#	c #920000",
"J#	c #B75353",
"K#	c #B03434",
"L#	c #EBE0E0",
"M#	c #EDE5E5",
"N#	c #B00404",
"O#	c #B40A0A",
"P#	c #CA5A5A",
"Q#	c #E6C8C8",
"R#	c #E7CBCB",
"S#	c #DDA4A4",
"T#	c #DFB0B0",
"U#	c #EDE8E8",
"V#	c #BB4747",
"W#	c #CD8888",
"X#	c #950606",
"Y#	c #860101",
"Z#	c #DFCBCB",
"`#	c #983F3F",
" $	c #C19696",
".$	c #C6A2A2",
"+$	c #680000",
"@$	c #7F2222",
"#$	c #F6FCFC",
"$$	c #994242",
"%$	c #EBE5E5",
"&$	c #A95555",
"*$	c #911111",
"=$	c #BA6767",
"-$	c #980404",
";$	c #C77C7C",
">$	c #BF5B5B",
",$	c #A90606",
"'$	c #CE7A7A",
")$	c #C55454",
"!$	c #E8D4D4",
"~$	c #E2C5C5",
"{$	c #C57676",
"]$	c #980505",
"^$	c #A83B3B",
"/$	c #A43F3F",
"($	c #B97878",
"_$	c #EBE4E4",
":$	c #AA6565",
"<$	c #EDEBEB",
"[$	c #710707",
"}$	c #710B0B",
"|$	c #9A5050",
"1$	c #E7E0E0",
"2$	c #B26D6D",
"3$	c #A64747",
"4$	c #B05858",
"5$	c #BB5F5F",
"6$	c #C67878",
"7$	c #B33131",
"8$	c #A90707",
"9$	c #B21C1C",
"0$	c #C86666",
"a$	c #D69696",
"b$	c #D69494",
"c$	c #E2C1C1",
"d$	c #D29A9A",
"e$	c #C37474",
"f$	c #950505",
"g$	c #C18080",
"h$	c #B36565",
"i$	c #A95858",
"j$	c #E7DFDF",
"k$	c #944343",
"l$	c #BA8D8D",
"m$	c #8E3333",
"n$	c #CBA7A7",
"o$	c #AF6868",
"p$	c #E3D3D3",
"q$	c #BC7373",
"r$	c #A62F2F",
"s$	c #9A0404",
"t$	c #B84F4F",
"u$	c #CA7A7A",
"v$	c #B94242",
"w$	c #A80606",
"x$	c #B32828",
"y$	c #B32929",
"z$	c #F4FBFB",
"A$	c #DCB7B7",
"B$	c #9B0404",
"C$	c #990D0D",
"D$	c #D4AEAE",
"E$	c #860000",
"F$	c #E8DFDF",
"G$	c #B67777",
"H$	c #B67D7D",
"I$	c #A66161",
"J$	c #B17C7C",
"K$	c #6B0101",
"L$	c #DBC8C8",
"M$	c #CAA5A5",
"N$	c #8E2828",
"O$	c #ECE9E9",
"P$	c #B26666",
"Q$	c #961D1D",
"R$	c #B05252",
"S$	c #970000",
"T$	c #9C0303",
"U$	c #AD2F2F",
"V$	c #C36D6D",
"W$	c #CB8282",
"X$	c #CB8181",
"Y$	c #AD2E2E",
"Z$	c #A82525",
"`$	c #960000",
" %	c #AF4646",
".%	c #C07B7B",
"+%	c #9E2F2F",
"@%	c #B87575",
"#%	c #E3D5D5",
"$%	c #922F2F",
"%%	c #E5DADA",
"&%	c #CDAEAE",
"*%	c #6C0000",
"=%	c #FAFFFF",
"-%	c #CEA8A8",
";%	c #BF8585",
">%	c #E4D7D7",
",%	c #9D2E2E",
"'%	c #961414",
")%	c #C17979",
"!%	c #BF6E6E",
"~%	c #A21E1E",
"{%	c #990000",
"]%	c #A82929",
"^%	c #A82828",
"/%	c #9A0202",
"(%	c #9B0909",
"_%	c #B65757",
":%	c #C27B7B",
"<%	c #A53A3A",
"[%	c #A43D3D",
"}%	c #E2D1D1",
"|%	c #C99B9B",
"1%	c #CCA5A5",
"2%	c #F2F4F4",
"3%	c #AD7272",
"4%	c #6D0303",
"5%	c #8A3232",
"6%	c #BC8585",
"7%	c #9E4242",
"8%	c #EAE4E4",
"9%	c #AD5555",
"0%	c #910707",
"a%	c #B15353",
"b%	c #BD7272",
"c%	c #C07474",
"d%	c #9A1D1D",
"e%	c #870000",
"f%	c #B46565",
"g%	c #E7DDDD",
"h%	c #993737",
"i%	c #B77C7C",
"j%	c #A45858",
"k%	c #AF7373",
"l%	c #862B2B",
"m%	c #944747",
"n%	c #F4F8F8",
"o%	c #E5DBDB",
"p%	c #E9E1E1",
"q%	c #BB7C7C",
"r%	c #9F3737",
"s%	c #BC7676",
"t%	c #BD7575",
"u%	c #B56363",
"v%	c #B66464",
"w%	c #B56262",
"x%	c #C28484",
"y%	c #A23D3D",
"z%	c #BA7A7A",
"A%	c #DFCCCC",
"B%	c #FCFFFF",
"C%	c #DBC9C9",
"D%	c #832626",
"E%	c #6E0303",
"F%	c #A15959",
"G%	c #943C3C",
"H%	c #993F3F",
"I%	c #A85959",
"J%	c #DECBCB",
"K%	c #F4FAFA",
"L%	c #A85555",
"M%	c #C08383",
"N%	c #AC5A5A",
"O%	c #AB5757",
"P%	c #C69191",
"Q%	c #A24444",
"R%	c #B57474",
"S%	c #9B4343",
"T%	c #963F3F",
"U%	c #9F5454",
"V%	c #5D0101",
"W%	c #7F1F1F",
"X%	c #C8A4A4",
"Y%	c #E7DEDE",
"Z%	c #DFCECE",
"`%	c #AE6D6D",
" &	c #8B2020",
".&	c #871515",
"+&	c #810707",
"@&	c #840D0D",
"#&	c #E1D1D1",
"$&	c #AB6767",
"%&	c #D0B2B2",
"&&	c #D9C3C3",
"*&	c #BC8F8F",
"=&	c #791313",
"-&	c #5C0000",
";&	c #6E0101",
">&	c #700000",
",&	c #730000",
"'&	c #C8A3A3",
")&	c #7F1010",
"!&	c #7A0707",
"~&	c #C7A1A1",
"{&	c #710000",
"]&	c #6E0000",
"^&	c #6F0303",
"/&	c #5D0000",
"(&	c #700101",
"_&	c #590101",
":&	c #600101",
". + @ # $ % & * = - ; > , ' ' ) ) ' ' , > ; - = * & % $ # @ + . ",
"+ @ # $ ! ~ { - ] , ^ / ( _ : : : : _ ( / ^ , ] - { ~ ! $ # @ + ",
"@ < $ ! ~ = [ } ^ | : 1 2 3 4 5 5 6 7 2 1 : | ^ } [ = ~ ! $ < @ ",
"< $ 8 ~ 9 ; , 0 : a b 4 c d e f g h i j k l a _ m , ; 9 ~ 8 $ < ",
"n o p 9 ; q r s t 4 u v w x y z A B C D E F G 2 H I J ; 9 p o n ",
"K & { L M N O 5 P Q R S T U V W X W Y Z `  ...+.@.#.$.%.L { & K ",
"8 &.L *.=.-.;.>.,.'.).!.~.{.].^./.(._.:.<.[.}.|.1.2.3.4.5.L &.8 ",
"p 9 6.7.8.9.0.a.b.c.d.e.f.g.h.i.j.k.l.m.n.o.p.q.r.s.t.u.v.w.9 p ",
"&.x.y.z.A.B.C.D.E.F.G.H.I.J.K.L.M.N.O.P.Q.R.S.T.U.V.W.X.Y.Z.x.&.",
"= `. +.+++@+#+$+%+&+*+=+-+;+>+,+'+)+!+~+{+]+^+/+(+#+_+:+<+[+}+= ",
"- |+1+2+3+4+5+6+7+8+9+0+a+b+c+d+e+f+g+h+i+j+k+7+l+m+n+o+p+q+r+- ",
"s+t+u+v+w+x+y+z+A+B+C+D+E+F+G+H+I+J+K+L+M+N+B+O+P+(+Q+R+S+T+U+V+",
"W+X+Y+Z+`+ @.@+@@@#@$@%@&@F+*@=@-@;@>@,@'@)@!@k+~@{@]@^@/@(@_@:@",
"<@=.[@}@|@1@2@3@4@5@6@7@8@9@0@a@b@c@>@F+d@e@f@g@h@i@j@k@l@m@n@o@",
"p@q@r@s@t@u@v@c@w@,@x@y@z@A@B@C@D@E@,@F+F+F@G@H@I@J@K@L@M@N@O@P@",
"x.M@Q@R@C ]@S@T@>@F+U@V@W@X@Y@Z@`@ #>@F+,@.#+#@#7+##$#%#&#*#=#P@",
"-#;#>#,#'#)#!#~#F+{#E+]#^#/#(#_#:#<#F+[#}#|#1#2#3#4#5#6#7#8#9#0#",
"a#b#c#d#e#f#/+g#h#i#;@j#H+k#l#m#n#5@o#p#q#r#s#t#u#v#w#x#y#z#A#B#",
"C#D#E#F#G#B H#I#J#K#L#M#N#O#P#Q#R#S#T#U#i#V#W#Q.X#<.Y#Z#`# $.$+$",
"L @$#$$$%$&$*$=$-$;$>$,$'$)$!$9@F+9@>@F+F+~${$]$^$/$($_$:$<$[$L ",
"9 }$|$1$[@2$3$4$3#5$6$7$8$9$0$a$b$c$F+F+c@d$e$f$g$h$i$j$8#k$} 9 ",
"= P@l$m$n$o$p$` q$r$s$t$u$v$w$x$y$i+5@z$A$B$C$D$E$F$G$H$I$J$K$= ",
"&.L , L$M$N$O$P$Q$R$7+S$T$U$V$W$X$V$Y$Z$`$ %.%+%@%#%$%%%&%P@L &.",
"& 9 ] *% $=%-%;%>%,%'%)%!%~%{%]%^%/%(%_%:%<%[%}%|%1%2%3%B#; 9 & ",
"! &.- 4%5%I$9.6%7%8%9%(+0%a%b%c%c%b%~.d%e%f%g%h%i%j%k%l%} - &.! ",
"K & { [ *%m%7.n%o%G#p%q%r%s%t%u%v%w%x%y%z%A%R@O@B%C%D%E%[ { & K ",
"n K ~ 9 ; , m F%G%H%I%J%K%L%M%N%O%P%Q%:.8%R%S%T%U%| , ; 9 ~ K n ",
"V%n ! p 9 ; 4%W%X%Y%Z%`% &J%.&+&+&@&#&$%$&%&&&*&=&} ; 9 p ! n V%",
"-&< $ 8 p { L } ;&*%>&,&'&)&l l l l !&~&,&{&]&^&} L { p 8 $ < -&",
"+ /&< $ ! p { - ; } ' / >&_ _ : : _ _ (&/ ' } ; - { p ! $ < /&+ ",
". + /&< n o 8 ~ { - [ > } , ' ' ' ' , } > [ - { ~ 8 o n < /&+ . ",
"_&. + -&V%n :&! 8 ~ &.9 9 - [ [ [ [ - 9 9 &.~ 8 ! :&n V%-&+ . _&"};
